<svg xmlns="http://www.w3.org/2000/svg" height="24" viewBox="0 -960 960 960" width="24"><path d="M450.001-295.386h59.998v-233.076h-59.998v233.076ZM480-600q13.731 0 23.019-9.288 9.288-9.289 9.288-23.019 0-13.731-9.288-23.019-9.288-9.288-23.019-9.288-13.731 0-23.019 9.288-9.288 9.288-9.288 23.019 0 13.73 9.288 23.019Q466.269-600 480-600Zm0 499.229q-129.769-35.384-214.884-152.768Q180.001-370.924 180.001-516v-230.153L480-858.46l299.999 112.307V-516q0 145.076-85.115 262.461Q609.769-136.155 480-100.771ZM480-164q104-33 172-132t68-220v-189l-240-89.615L240-705v189q0 121 68 220t172 132Zm0-315.615Z"/></svg>