<svg width="2000" height="2000" viewBox="0 0 2000 2000" fill="none" xmlns="http://www.w3.org/2000/svg">
<path d="M1062.51 666.668C1223.59 666.668 1354.18 536.085 1354.18 375.002C1354.18 213.919 1223.59 83.3359 1062.51 83.3359C901.427 83.3359 770.844 213.919 770.844 375.002C770.844 536.085 901.427 666.668 1062.51 666.668Z" fill="#7B83EB"/>
<path opacity="0.1" d="M1041.65 437.5H777.558C777.981 439.445 778.425 441.388 778.889 443.329L779.007 443.817C779.435 445.603 779.888 447.384 780.346 449.161C799.539 521.949 846.106 584.51 910.325 623.783C974.544 663.056 1051.45 676.005 1124.99 659.927V520.832C1124.92 498.75 1116.12 477.592 1100.51 461.978C1084.89 446.364 1063.73 437.564 1041.65 437.5V437.5Z" fill="black"/>
<path opacity="0.2" d="M979.165 500H798.92C822.581 549.875 859.909 592.012 906.567 621.514C953.226 651.016 1007.3 666.673 1062.5 666.664V583.332C1062.44 561.25 1053.63 540.092 1038.02 524.478C1022.41 508.864 1001.25 500.064 979.165 500V500Z" fill="black"/>
<path d="M1718.75 687.5C1839.56 687.5 1937.5 589.562 1937.5 468.75C1937.5 347.938 1839.56 250 1718.75 250C1597.94 250 1500 347.938 1500 468.75C1500 589.562 1597.94 687.5 1718.75 687.5Z" fill="#5059C9"/>
<path d="M1906.24 750H1414.94C1404.34 750 1394.18 754.208 1386.69 761.698C1379.2 769.189 1374.99 779.348 1374.99 789.941V1296.83C1373.63 1370.19 1397.52 1441.79 1442.64 1499.64C1487.77 1557.49 1551.4 1598.08 1622.88 1614.62C1668.42 1624.18 1715.51 1623.46 1760.72 1612.51C1805.94 1601.57 1848.15 1580.68 1884.28 1551.37C1920.4 1522.05 1949.54 1485.05 1969.55 1443.05C1989.57 1401.05 1999.97 1355.12 1999.99 1308.6V843.75C1999.99 818.886 1990.11 795.041 1972.53 777.46C1954.95 759.878 1931.11 750.001 1906.24 750V750Z" fill="#5059C9"/>
<path d="M1562.5 843.75V1437.5C1562.57 1547.54 1526.32 1654.53 1459.36 1741.85C1392.41 1829.18 1298.5 1891.96 1192.22 1920.46C1085.93 1948.95 973.211 1941.57 871.553 1899.44C769.894 1857.32 684.984 1782.82 630 1687.5C617.973 1667.51 607.525 1646.61 598.75 1625C590.57 1604.62 583.681 1583.75 578.125 1562.5C567.821 1521.63 562.574 1479.65 562.5 1437.5V843.75C562.484 831.434 564.897 819.236 569.603 807.854C574.308 796.472 581.213 786.131 589.922 777.422C598.631 768.713 608.972 761.808 620.354 757.103C631.736 752.397 643.934 749.984 656.25 750H1468.75C1481.07 749.984 1493.26 752.397 1504.65 757.103C1516.03 761.808 1526.37 768.713 1535.08 777.422C1543.79 786.131 1550.69 796.472 1555.4 807.854C1560.1 819.236 1562.52 831.434 1562.5 843.75V843.75Z" fill="#7B83EB"/>
<path opacity="0.2" d="M979.165 500H798.92C822.581 549.875 859.909 592.012 906.567 621.514C953.226 651.016 1007.3 666.673 1062.5 666.664V583.332C1062.44 561.25 1053.63 540.092 1038.02 524.478C1022.41 508.864 1001.25 500.064 979.165 500V500Z" fill="black"/>
<path opacity="0.1" d="M1125 750V1541.87C1125 1560.72 1118.55 1578.99 1106.72 1593.65C1094.9 1608.32 1078.41 1618.5 1060 1622.5C1054.12 1624.25 1048.01 1625.09 1041.87 1625H598.75C590.57 1604.62 583.681 1583.75 578.125 1562.5C567.821 1521.63 562.574 1479.65 562.5 1437.5V843.75C562.484 831.434 564.897 819.236 569.603 807.854C574.308 796.472 581.213 786.131 589.922 777.422C598.631 768.713 608.972 761.808 620.354 757.103C631.736 752.397 643.934 749.984 656.25 750H1125Z" fill="black"/>
<path opacity="0.2" d="M1062.5 750V1604.37C1062.59 1610.51 1061.75 1616.62 1060 1622.5C1056 1640.91 1045.82 1657.4 1031.15 1669.22C1016.49 1681.05 998.215 1687.5 979.375 1687.5H630C617.973 1667.51 607.525 1646.61 598.75 1625C590.57 1604.62 583.681 1583.75 578.125 1562.5C567.821 1521.63 562.574 1479.65 562.5 1437.5V843.75C562.484 831.434 564.897 819.236 569.603 807.854C574.308 796.472 581.213 786.131 589.922 777.422C598.631 768.713 608.972 761.808 620.354 757.103C631.736 752.397 643.934 749.984 656.25 750H1062.5Z" fill="black"/>
<path opacity="0.2" d="M1062.5 750V1479.37C1062.4 1501.39 1053.61 1522.48 1038.05 1538.05C1022.48 1553.61 1001.39 1562.4 979.375 1562.5H578.125C567.821 1521.63 562.574 1479.65 562.5 1437.5V843.75C562.484 831.434 564.897 819.236 569.603 807.854C574.308 796.472 581.213 786.131 589.922 777.422C598.631 768.713 608.972 761.808 620.354 757.103C631.736 752.397 643.934 749.984 656.25 750H1062.5Z" fill="black"/>
<path opacity="0.2" d="M656.25 750C643.934 749.984 631.736 752.397 620.354 757.103C608.972 761.808 598.631 768.713 589.922 777.422C581.213 786.131 574.308 796.472 569.603 807.854C564.897 819.236 562.484 831.434 562.5 843.75V1437.5C562.574 1479.65 567.821 1521.63 578.125 1562.5H916.875C938.891 1562.4 959.978 1553.61 975.546 1538.05C991.114 1522.48 999.903 1501.39 1000 1479.37V750H656.25Z" fill="black"/>
<path d="M83.3331 500H916.668C938.769 500 959.965 508.781 975.593 524.409C991.221 540.037 1000 561.233 1000 583.334V1416.67C1000 1438.77 991.221 1459.96 975.593 1475.59C959.965 1491.22 938.77 1500 916.669 1500H83.3337C61.2322 1500 40.036 1491.22 24.4079 1475.59C8.77975 1459.96 0 1438.77 0 1416.67V583.333C0 561.232 8.77975 540.036 24.4077 524.408C40.0357 508.78 61.2318 500 83.3331 500V500Z" fill="#4B53BC"/>
<path d="M748.291 810.869H561.84V1312.14H439.302V810.869H251.77V687.721H748.291V810.869Z" fill="white"/>
</svg>
